<svg width="201" height="38" viewBox="0 0 201 38" fill="none" xmlns="http://www.w3.org/2000/svg">
<path d="M0 18.027C0.0631133 16.7648 0.252453 15.4867 0.568019 14.2245C2.13007 15.1711 3.84991 15.6445 5.72753 15.6445C6.26399 15.6445 6.80046 15.6129 7.36848 15.534C11.1395 15.0291 15.0052 12.836 18.7289 10.7059C25.0875 7.09265 29.679 4.77324 33.5763 7.13999C35.3592 9.38051 36.6373 12.0155 37.2526 14.8398C35.0279 13.0884 32.4718 12.4415 29.537 12.8517C25.8607 13.3724 22.0739 15.5341 18.4133 17.6168C14.9263 19.6049 11.3131 21.656 8.09428 22.0978C4.84395 22.5238 2.2563 21.23 0 18.027ZM19.8333 20.1098C16.1097 22.2241 12.244 24.433 8.47296 24.9379C7.92072 25.0168 7.36848 25.0484 6.83201 25.0484C4.41793 25.0484 2.28786 24.2752 0.37868 22.6974C0.9467 25.4271 2.1143 27.9989 3.77102 30.2237C5.36463 31.3597 7.14758 31.7699 9.18298 31.5017C12.4018 31.0599 16.015 29.0087 19.502 27.0207C23.1626 24.9379 26.9494 22.7763 30.6257 22.2556C33.0398 21.9085 35.2014 22.2872 37.1264 23.4074C37.442 22.0978 37.6313 20.804 37.6786 19.5102C33.1029 13.0411 27.8803 15.534 19.8333 20.1098ZM6.97402 12.6624C10.1928 12.2206 13.806 10.1694 17.293 8.18135C20.9536 6.09861 24.7404 3.93698 28.4168 3.4163C28.7797 3.36897 29.1268 3.33741 29.4739 3.30585C27.8172 2.16981 25.9396 1.27045 23.9042 0.702427C14.7212 -1.86944 5.22262 2.8325 1.5305 11.3528C3.13989 12.5362 4.92284 12.9464 6.97402 12.6624ZM20.9221 29.5136C17.1984 31.6279 13.3327 33.8369 9.56166 34.3418C9.08831 34.4049 8.63074 34.4365 8.18895 34.4523C9.84567 35.5883 11.7075 36.4719 13.7429 37.0399C22.989 39.6276 32.5507 34.8467 36.1797 26.216C32.2036 23.4232 27.5174 25.7742 20.9221 29.5136Z" fill="#31B3F4"/>
<path d="M51.1852 16.3246C53.2364 16.3246 54.6249 15.3621 54.6249 13.6739C54.6249 11.8751 53.0786 11.528 52.4632 11.386L50.1281 10.8496C49.0078 10.5813 46.6726 10.0606 46.6726 7.59922C46.6726 5.46914 48.424 4.22266 50.9643 4.22266C53.5993 4.22266 55.3822 5.53225 55.4296 7.86744H54.2777C54.1673 6.10027 52.9366 5.18513 50.9801 5.18513C49.0078 5.18513 47.856 6.13183 47.856 7.52032C47.856 9.12971 49.4022 9.52417 50.3016 9.71351L52.7946 10.2658C54.972 10.7549 55.824 11.9856 55.824 13.5792C55.824 15.9459 53.9306 17.2713 51.1379 17.2713C47.7771 17.2713 46.2939 15.3464 46.3097 13.1847H47.4773C47.5246 15.3306 49.0236 16.3246 51.1852 16.3246ZM58.601 4.39621H66.8531V5.5007H59.7213V10.0449H66.0168V11.0862H59.7213V16.0091H66.8373V17.1135H58.5852V4.39621H58.601ZM76.3201 13.8317H70.1665L68.9043 17.1135H67.7051L72.6122 4.39621H73.906L78.813 17.1135H77.5981L76.3201 13.8317ZM75.9256 12.8376L74.9947 10.392L73.2749 5.51648H73.2117L71.4603 10.392L70.5294 12.8376H75.9256ZM91.909 5.46914H87.8067V17.1135H86.6706V5.46914H82.5209V4.41199H91.909V5.46914ZM93.0609 4.39621H98.9777C101.471 4.39621 102.607 5.84782 102.607 8.19879C102.607 9.71351 101.897 10.8338 100.824 11.2125V11.3229H101.597C102.449 11.3229 102.654 11.7805 102.654 12.4589V17.1135H101.518V12.0487H94.1969V17.1135H93.0609V4.39621ZM98.8515 11.0073C100.477 11.0073 101.392 10.1395 101.392 8.8457V7.58344C101.392 6.11605 100.382 5.43758 98.8515 5.43758H94.1969V11.0073H98.8515ZM112.547 13.8317H106.394L105.131 17.1135H103.932L108.839 4.39621H110.133L115.04 17.1135H113.825L112.547 13.8317ZM112.153 12.8376L111.222 10.392L109.502 5.51648H109.439L107.687 10.4078L106.756 12.8534H112.153V12.8376ZM116.381 4.39621H117.88L125.217 15.8197H125.28L125.17 11.8909V4.39621H126.306V17.1135H124.791L117.486 5.65848H117.423L117.517 9.44528V17.1135H116.381V4.39621ZM133.737 16.3246C135.789 16.3246 137.177 15.3621 137.177 13.6739C137.177 11.8751 135.631 11.528 135.015 11.386L132.68 10.8496C131.56 10.5813 129.225 10.0606 129.225 7.59922C129.225 5.46914 130.976 4.22266 133.516 4.22266C136.151 4.22266 137.934 5.53225 137.982 7.86744H136.83C136.719 6.10027 135.489 5.18513 133.532 5.18513C131.56 5.18513 130.408 6.13183 130.408 7.52032C130.408 9.12971 131.954 9.52417 132.854 9.71351L135.347 10.2658C137.524 10.7549 138.376 11.9856 138.376 13.5792C138.376 15.9459 136.483 17.2713 133.69 17.2713C130.329 17.2713 128.846 15.3464 128.862 13.1847H130.029C130.077 15.3306 131.576 16.3246 133.737 16.3246ZM141.153 4.39621H146.502C149.184 4.39621 150.368 5.95827 150.368 8.30924C150.368 10.8496 149.042 12.2854 146.502 12.2854H142.289V17.1135H141.153V4.39621ZM146.549 11.244C148.222 11.244 149.169 10.3446 149.169 8.97193V7.58344C149.169 6.25806 148.222 5.5007 146.802 5.5007H142.289V11.244H146.549ZM157.468 4.23843C161.223 4.23843 163.322 6.5894 163.322 10.7549C163.322 14.9204 161.207 17.2713 157.468 17.2713C153.713 17.2713 151.614 14.9204 151.614 10.7549C151.614 6.60518 153.729 4.23843 157.468 4.23843ZM157.468 16.23C160.45 16.23 162.123 14.3997 162.123 11.6385V9.85551C162.123 6.93652 160.261 5.31136 157.468 5.31136C154.486 5.31136 152.813 7.12586 152.813 9.85551V11.6385C152.813 14.5732 154.675 16.23 157.468 16.23ZM165.767 4.39621H171.684C174.177 4.39621 175.313 5.84782 175.313 8.19879C175.313 9.71351 174.603 10.8338 173.53 11.2125V11.3229H174.303C175.155 11.3229 175.361 11.7805 175.361 12.4589V17.1135H174.225V12.0487H166.903V17.1135H165.767V4.39621ZM171.558 11.0073C173.183 11.0073 174.098 10.1395 174.098 8.8457V7.58344C174.098 6.11605 173.089 5.43758 171.558 5.43758H166.903V11.0073H171.558ZM185.301 5.46914H181.199V17.1135H180.063V5.46914H175.913V4.41199H185.301V5.46914ZM51.1852 32.5921C53.2364 32.5921 54.6249 31.6296 54.6249 29.9413C54.6249 28.1426 53.0786 27.7955 52.4632 27.6535L50.1281 27.117C49.0078 26.8488 46.6726 26.3281 46.6726 23.8667C46.6726 21.7366 48.424 20.4901 50.9643 20.4901C53.5993 20.4901 55.3822 21.7997 55.4296 24.1349H54.2777C54.1673 22.3677 52.9366 21.4526 50.9801 21.4526C49.0078 21.4526 47.856 22.3993 47.856 23.7878C47.856 25.3972 49.4022 25.7916 50.3016 25.981L52.7946 26.5332C54.972 27.0223 55.824 28.253 55.824 29.8466C55.824 32.2134 53.9306 33.5388 51.1379 33.5388C47.7771 33.5388 46.2939 31.6138 46.3097 29.4522H47.4773C47.5246 31.598 49.0236 32.5921 51.1852 32.5921ZM58.601 20.6637H66.8531V21.7681H59.7213V26.3123H66.0168V27.3537H59.7213V32.2765H66.8373V33.381H58.5852V20.6637H58.601ZM69.5196 20.6637H75.4365C77.9295 20.6637 79.0655 22.1153 79.0655 24.4662C79.0655 25.981 78.3555 27.1012 77.2825 27.4799V27.5903H78.0557C78.9077 27.5903 79.1128 28.0479 79.1128 28.7264V33.381H77.9768V28.3161H70.6556V33.381H69.5196V20.6637ZM75.3103 27.2748C76.9354 27.2748 77.8506 26.407 77.8506 25.1132V23.8509C77.8506 22.3835 76.8407 21.705 75.3103 21.705H70.6556V27.2748H75.3103ZM79.886 20.6637H81.1009L83.3888 27.0223L85.1875 32.387H85.2979L87.1124 27.0381L89.4319 20.6479H90.6152L86.0079 33.3652H84.4932L79.886 20.6637ZM92.0037 33.3652V20.6479H93.1398V33.3652H92.0037ZM95.5696 27.0223C95.5696 22.9042 97.6208 20.4901 101.392 20.4901C104.484 20.4901 106.457 22.2415 106.82 24.8291H105.652C105.289 22.9042 103.837 21.563 101.376 21.563C98.5833 21.563 96.7688 23.2829 96.7688 26.0599V28.0953C96.7688 30.6198 98.5991 32.4659 101.297 32.4659C103.553 32.4659 105.163 31.172 105.636 29.1997H106.804C106.33 31.8347 104.263 33.523 101.234 33.523C97.7155 33.5388 95.5696 31.2036 95.5696 27.0223ZM109.36 20.6637H117.612V21.7681H110.496V26.3123H116.791V27.3537H110.496V32.2765H117.612V33.381H109.36V20.6637ZM123.955 32.5921C126.006 32.5921 127.395 31.6296 127.395 29.9413C127.395 28.1426 125.848 27.7955 125.233 27.6535L122.898 27.117C121.777 26.8488 119.442 26.3281 119.442 23.8667C119.442 21.7366 121.194 20.4901 123.734 20.4901C126.369 20.4901 128.152 21.7997 128.199 24.1349H127.047C126.937 22.3677 125.706 21.4526 123.75 21.4526C121.777 21.4526 120.626 22.3993 120.626 23.7878C120.626 25.3972 122.172 25.7916 123.071 25.981L125.564 26.5332C127.742 27.0223 128.594 28.253 128.594 29.8466C128.594 32.2134 126.7 33.5388 123.907 33.5388C120.547 33.5388 119.064 31.6138 119.079 29.4522H120.247C120.278 31.598 121.793 32.5921 123.955 32.5921ZM135.221 20.6637H136.719L144.056 32.0872H144.12L144.009 28.1584V20.6637H145.145V33.381H143.63L136.325 21.9259H136.262L136.357 25.7127V33.381H135.221V20.6637ZM148.664 33.3652V20.6479H149.8V33.3652H148.664ZM158.131 20.5059C160.845 20.5059 162.959 22.0364 163.416 24.3242H162.233C161.902 22.6675 160.277 21.563 158.162 21.563C155.464 21.563 153.429 23.3618 153.429 26.1072V28.0953C153.429 30.6513 155.243 32.5132 157.941 32.5132C160.639 32.5132 162.454 30.6356 162.454 27.7797H157.547V26.7225H163.779V33.3652H162.833L162.659 30.9511H162.533C161.57 32.7183 159.787 33.5388 157.799 33.5388C154.249 33.5388 152.198 30.9827 152.198 27.1012C152.245 22.8569 154.675 20.5059 158.131 20.5059ZM166.209 31.4245H167.961V33.381H166.209V31.4245ZM174.572 20.6637H175.708V32.3081H182.003V33.3652H174.572V20.6637ZM189.64 21.7208H185.538V33.3652H184.402V21.7208H180.252V20.6637H189.64V21.7208ZM190.792 20.6637H195.825C199.707 20.6637 201 23.0304 201 27.0223C201 31.0142 199.707 33.3652 195.825 33.3652H190.792V20.6637ZM195.825 32.2765C198.413 32.2765 199.801 31.0931 199.801 28.0637V26.0125C199.801 22.9831 198.413 21.7681 195.825 21.7681H191.912V32.2765H195.825Z" fill="black"/>
</svg>
